{
    "asset" : {
        "generator" : "Khronos glTF Blender I/O v1.7.33",
        "version" : "2.0"
    },
    "scene" : 0,
    "scenes" : [
        {
            "name" : "Scene",
            "nodes" : [
                0,
                1,
                2,
                3,
                4,
                5,
                6,
                7,
                8
            ]
        }
    ],
    "nodes" : [
        {
            "mesh" : 0,
            "name" : "Cubeta.001",
            "rotation" : [
                -0.0037550977431237698,
                -0.7070968747138977,
                -0.7070968747138977,
                0.0037550977431237698
            ],
            "scale" : [
                0.09017293155193329,
                0.09017293900251389,
                0.09314295649528503
            ],
            "translation" : [
                -2.033668041229248,
                0.7132551074028015,
                -0.2170523703098297
            ]
        },
        {
            "mesh" : 1,
            "name" : "Cubeta.002",
            "rotation" : [
                -0.0037550977431237698,
                -0.7070968747138977,
                -0.7070968747138977,
                0.0037550977431237698
            ],
            "scale" : [
                0.09017293155193329,
                0.09017293900251389,
                0.09314295649528503
            ],
            "translation" : [
                -2.3757338523864746,
                0.7132551074028015,
                -0.2170523703098297
            ]
        },
        {
            "mesh" : 2,
            "name" : "Cubeta.003",
            "rotation" : [
                -0.0037550977431237698,
                -0.7070968747138977,
                -0.7070968747138977,
                0.0037550977431237698
            ],
            "scale" : [
                0.09017293155193329,
                0.09017293900251389,
                0.09314295649528503
            ],
            "translation" : [
                -2.7095870971679688,
                0.7132551074028015,
                -0.2170523703098297
            ]
        },
        {
            "mesh" : 3,
            "name" : "Cubeta.004",
            "rotation" : [
                -0.0037550977431237698,
                -0.7070968747138977,
                -0.7070968747138977,
                0.0037550977431237698
            ],
            "scale" : [
                0.09017293155193329,
                0.09017293900251389,
                0.09314295649528503
            ],
            "translation" : [
                -3.0609593391418457,
                0.7132551074028015,
                -0.2170523703098297
            ]
        },
        {
            "mesh" : 4,
            "name" : "Cubeta.005",
            "rotation" : [
                -0.0037550977431237698,
                -0.7070968747138977,
                -0.7070968747138977,
                0.0037550977431237698
            ],
            "scale" : [
                0.09017293155193329,
                0.09017293900251389,
                0.09314295649528503
            ],
            "translation" : [
                -3.4076108932495117,
                0.7132551074028015,
                -0.2170523703098297
            ]
        },
        {
            "mesh" : 5,
            "name" : "Cubeta.006",
            "rotation" : [
                -0.0037550977431237698,
                -0.7070968747138977,
                -0.7070968747138977,
                0.0037550977431237698
            ],
            "scale" : [
                0.09017293155193329,
                0.09017293900251389,
                0.09314295649528503
            ],
            "translation" : [
                -3.7575974464416504,
                0.7132551074028015,
                -0.2170523703098297
            ]
        },
        {
            "mesh" : 6,
            "name" : "Cubeta.007",
            "rotation" : [
                -0.0037550977431237698,
                -0.7070968747138977,
                -0.7070968747138977,
                0.0037550977431237698
            ],
            "scale" : [
                0.09017293155193329,
                0.09017293900251389,
                0.09314295649528503
            ],
            "translation" : [
                -4.103741645812988,
                0.7132551074028015,
                -0.2170523703098297
            ]
        },
        {
            "mesh" : 7,
            "name" : "Cubeta.008",
            "rotation" : [
                -0.0037550977431237698,
                -0.7070968747138977,
                -0.7070968747138977,
                0.0037550977431237698
            ],
            "scale" : [
                0.09017293155193329,
                0.09017293900251389,
                0.09314295649528503
            ],
            "translation" : [
                -1.672410488128662,
                0.7132551074028015,
                -0.2170523703098297
            ]
        },
        {
            "mesh" : 8,
            "name" : "Cubeta.009",
            "rotation" : [
                -0.0037550977431237698,
                -0.7070968747138977,
                -0.7070968747138977,
                0.0037550977431237698
            ],
            "scale" : [
                0.09017293155193329,
                0.09017293900251389,
                0.09314295649528503
            ],
            "translation" : [
                -1.3007045984268188,
                0.7132551074028015,
                -0.2170523703098297
            ]
        }
    ],
    "materials" : [
        {
            "doubleSided" : true,
            "name" : "etiqueta M",
            "pbrMetallicRoughness" : {
                "baseColorTexture" : {
                    "index" : 0
                },
                "metallicFactor" : 0.5462219715118408,
                "roughnessFactor" : 0.5167322754859924
            }
        },
        {
            "doubleSided" : true,
            "name" : "etiqueta J",
            "pbrMetallicRoughness" : {
                "baseColorTexture" : {
                    "index" : 1
                },
                "metallicFactor" : 0.5462219715118408,
                "roughnessFactor" : 0.5167322754859924
            }
        },
        {
            "doubleSided" : true,
            "name" : "etiqueta I",
            "pbrMetallicRoughness" : {
                "baseColorTexture" : {
                    "index" : 2
                },
                "metallicFactor" : 0.5462219715118408,
                "roughnessFactor" : 0.5167322754859924
            }
        },
        {
            "doubleSided" : true,
            "name" : "etiqueta ES",
            "pbrMetallicRoughness" : {
                "baseColorTexture" : {
                    "index" : 3
                },
                "metallicFactor" : 0.5462219715118408,
                "roughnessFactor" : 0.5167322754859924
            }
        },
        {
            "doubleSided" : true,
            "name" : "etiqueta E",
            "pbrMetallicRoughness" : {
                "baseColorTexture" : {
                    "index" : 4
                },
                "metallicFactor" : 0.5462219715118408,
                "roughnessFactor" : 0.5167322754859924
            }
        },
        {
            "doubleSided" : true,
            "name" : "etiqueta r1",
            "pbrMetallicRoughness" : {
                "baseColorTexture" : {
                    "index" : 5
                },
                "metallicFactor" : 0.5462219715118408,
                "roughnessFactor" : 0.5167322754859924
            }
        },
        {
            "doubleSided" : true,
            "name" : "etiqueta acristar 6",
            "pbrMetallicRoughness" : {
                "baseColorTexture" : {
                    "index" : 6
                },
                "metallicFactor" : 0.5462219715118408,
                "roughnessFactor" : 0.5167322754859924
            }
        },
        {
            "doubleSided" : true,
            "name" : "etiqueta PRO",
            "pbrMetallicRoughness" : {
                "baseColorTexture" : {
                    "index" : 7
                },
                "metallicFactor" : 0.5462219715118408,
                "roughnessFactor" : 0.5167322754859924
            }
        },
        {
            "doubleSided" : true,
            "name" : "etiqueta ACRISTAR",
            "pbrMetallicRoughness" : {
                "baseColorTexture" : {
                    "index" : 8
                },
                "metallicFactor" : 0.5462219715118408,
                "roughnessFactor" : 0.5167322754859924
            }
        }
    ],
    "meshes" : [
        {
            "name" : "Mesh_0.001",
            "primitives" : [
                {
                    "attributes" : {
                        "POSITION" : 0,
                        "NORMAL" : 1,
                        "TEXCOORD_0" : 2
                    },
                    "indices" : 3,
                    "material" : 0
                }
            ]
        },
        {
            "name" : "Mesh_0.002",
            "primitives" : [
                {
                    "attributes" : {
                        "POSITION" : 4,
                        "NORMAL" : 5,
                        "TEXCOORD_0" : 6
                    },
                    "indices" : 3,
                    "material" : 1
                }
            ]
        },
        {
            "name" : "Mesh_0.003",
            "primitives" : [
                {
                    "attributes" : {
                        "POSITION" : 7,
                        "NORMAL" : 8,
                        "TEXCOORD_0" : 9
                    },
                    "indices" : 3,
                    "material" : 2
                }
            ]
        },
        {
            "name" : "Mesh_0.004",
            "primitives" : [
                {
                    "attributes" : {
                        "POSITION" : 10,
                        "NORMAL" : 11,
                        "TEXCOORD_0" : 12
                    },
                    "indices" : 3,
                    "material" : 3
                }
            ]
        },
        {
            "name" : "Mesh_0.005",
            "primitives" : [
                {
                    "attributes" : {
                        "POSITION" : 13,
                        "NORMAL" : 14,
                        "TEXCOORD_0" : 15
                    },
                    "indices" : 3,
                    "material" : 4
                }
            ]
        },
        {
            "name" : "Mesh_0.006",
            "primitives" : [
                {
                    "attributes" : {
                        "POSITION" : 16,
                        "NORMAL" : 17,
                        "TEXCOORD_0" : 18
                    },
                    "indices" : 3,
                    "material" : 5
                }
            ]
        },
        {
            "name" : "Mesh_0.007",
            "primitives" : [
                {
                    "attributes" : {
                        "POSITION" : 19,
                        "NORMAL" : 20,
                        "TEXCOORD_0" : 21
                    },
                    "indices" : 3,
                    "material" : 6
                }
            ]
        },
        {
            "name" : "Mesh_0.008",
            "primitives" : [
                {
                    "attributes" : {
                        "POSITION" : 22,
                        "NORMAL" : 23,
                        "TEXCOORD_0" : 24
                    },
                    "indices" : 3,
                    "material" : 7
                }
            ]
        },
        {
            "name" : "Mesh_0.009",
            "primitives" : [
                {
                    "attributes" : {
                        "POSITION" : 25,
                        "NORMAL" : 26,
                        "TEXCOORD_0" : 27
                    },
                    "indices" : 3,
                    "material" : 8
                }
            ]
        }
    ],
    "textures" : [
        {
            "sampler" : 0,
            "source" : 0
        },
        {
            "sampler" : 0,
            "source" : 1
        },
        {
            "sampler" : 0,
            "source" : 2
        },
        {
            "sampler" : 0,
            "source" : 3
        },
        {
            "sampler" : 0,
            "source" : 4
        },
        {
            "sampler" : 0,
            "source" : 5
        },
        {
            "sampler" : 0,
            "source" : 6
        },
        {
            "sampler" : 0,
            "source" : 7
        },
        {
            "sampler" : 0,
            "source" : 8
        }
    ],
    "images" : [
        {
            "mimeType" : "image/png",
            "name" : "VIN M T",
            "uri" : "VIN%20M%20T.png"
        },
        {
            "mimeType" : "image/png",
            "name" : "VIN J T",
            "uri" : "VIN%20J%20T.png"
        },
        {
            "mimeType" : "image/png",
            "name" : "VIN I T",
            "uri" : "VIN%20I%20T.png"
        },
        {
            "mimeType" : "image/png",
            "name" : "VIN Es T",
            "uri" : "VIN%20Es%20T.png"
        },
        {
            "mimeType" : "image/png",
            "name" : "VIN E T",
            "uri" : "VIN%20E%20T.png"
        },
        {
            "mimeType" : "image/png",
            "name" : "SELLADOR R1 T",
            "uri" : "SELLADOR%20R1%20T.png"
        },
        {
            "mimeType" : "image/png",
            "name" : "VIN R T",
            "uri" : "VIN%20R%20T.png"
        },
        {
            "mimeType" : "image/png",
            "name" : "VIN PRO T",
            "uri" : "VIN%20PRO%20T.png"
        },
        {
            "mimeType" : "image/png",
            "name" : "ACRISTAR 6 A\u00d1OS T",
            "uri" : "ACRISTAR%206%20A%C3%91OS%20T.png"
        }
    ],
    "accessors" : [
        {
            "bufferView" : 0,
            "componentType" : 5126,
            "count" : 12184,
            "max" : [
                1.6128010749816895,
                1.6032238006591797,
                2.0782103538513184
            ],
            "min" : [
                -1.5755223035812378,
                -1.584823727607727,
                -1.8058472871780396
            ],
            "type" : "VEC3"
        },
        {
            "bufferView" : 1,
            "componentType" : 5126,
            "count" : 12184,
            "type" : "VEC3"
        },
        {
            "bufferView" : 2,
            "componentType" : 5126,
            "count" : 12184,
            "type" : "VEC2"
        },
        {
            "bufferView" : 3,
            "componentType" : 5123,
            "count" : 19590,
            "type" : "SCALAR"
        },
        {
            "bufferView" : 4,
            "componentType" : 5126,
            "count" : 12184,
            "max" : [
                1.6128010749816895,
                1.6032238006591797,
                2.0782103538513184
            ],
            "min" : [
                -1.5755223035812378,
                -1.584823727607727,
                -1.8058472871780396
            ],
            "type" : "VEC3"
        },
        {
            "bufferView" : 5,
            "componentType" : 5126,
            "count" : 12184,
            "type" : "VEC3"
        },
        {
            "bufferView" : 6,
            "componentType" : 5126,
            "count" : 12184,
            "type" : "VEC2"
        },
        {
            "bufferView" : 7,
            "componentType" : 5126,
            "count" : 12184,
            "max" : [
                1.6128010749816895,
                1.6032238006591797,
                2.0782103538513184
            ],
            "min" : [
                -1.5755223035812378,
                -1.584823727607727,
                -1.8058472871780396
            ],
            "type" : "VEC3"
        },
        {
            "bufferView" : 8,
            "componentType" : 5126,
            "count" : 12184,
            "type" : "VEC3"
        },
        {
            "bufferView" : 9,
            "componentType" : 5126,
            "count" : 12184,
            "type" : "VEC2"
        },
        {
            "bufferView" : 10,
            "componentType" : 5126,
            "count" : 12184,
            "max" : [
                1.6128010749816895,
                1.6032238006591797,
                2.0782103538513184
            ],
            "min" : [
                -1.5755223035812378,
                -1.584823727607727,
                -1.8058472871780396
            ],
            "type" : "VEC3"
        },
        {
            "bufferView" : 11,
            "componentType" : 5126,
            "count" : 12184,
            "type" : "VEC3"
        },
        {
            "bufferView" : 12,
            "componentType" : 5126,
            "count" : 12184,
            "type" : "VEC2"
        },
        {
            "bufferView" : 13,
            "componentType" : 5126,
            "count" : 12184,
            "max" : [
                1.6128010749816895,
                1.6032238006591797,
                2.0782103538513184
            ],
            "min" : [
                -1.5755223035812378,
                -1.584823727607727,
                -1.8058472871780396
            ],
            "type" : "VEC3"
        },
        {
            "bufferView" : 14,
            "componentType" : 5126,
            "count" : 12184,
            "type" : "VEC3"
        },
        {
            "bufferView" : 15,
            "componentType" : 5126,
            "count" : 12184,
            "type" : "VEC2"
        },
        {
            "bufferView" : 16,
            "componentType" : 5126,
            "count" : 12184,
            "max" : [
                1.6128010749816895,
                1.6032238006591797,
                2.0782103538513184
            ],
            "min" : [
                -1.5755223035812378,
                -1.584823727607727,
                -1.8058472871780396
            ],
            "type" : "VEC3"
        },
        {
            "bufferView" : 17,
            "componentType" : 5126,
            "count" : 12184,
            "type" : "VEC3"
        },
        {
            "bufferView" : 18,
            "componentType" : 5126,
            "count" : 12184,
            "type" : "VEC2"
        },
        {
            "bufferView" : 19,
            "componentType" : 5126,
            "count" : 12184,
            "max" : [
                1.6128010749816895,
                1.6032238006591797,
                2.0782103538513184
            ],
            "min" : [
                -1.5755223035812378,
                -1.584823727607727,
                -1.8058472871780396
            ],
            "type" : "VEC3"
        },
        {
            "bufferView" : 20,
            "componentType" : 5126,
            "count" : 12184,
            "type" : "VEC3"
        },
        {
            "bufferView" : 21,
            "componentType" : 5126,
            "count" : 12184,
            "type" : "VEC2"
        },
        {
            "bufferView" : 22,
            "componentType" : 5126,
            "count" : 12184,
            "max" : [
                1.6128010749816895,
                1.6032238006591797,
                2.0782103538513184
            ],
            "min" : [
                -1.5755223035812378,
                -1.584823727607727,
                -1.8058472871780396
            ],
            "type" : "VEC3"
        },
        {
            "bufferView" : 23,
            "componentType" : 5126,
            "count" : 12184,
            "type" : "VEC3"
        },
        {
            "bufferView" : 24,
            "componentType" : 5126,
            "count" : 12184,
            "type" : "VEC2"
        },
        {
            "bufferView" : 25,
            "componentType" : 5126,
            "count" : 12184,
            "max" : [
                1.6128010749816895,
                1.6032238006591797,
                2.0782103538513184
            ],
            "min" : [
                -1.5755223035812378,
                -1.584823727607727,
                -1.8058472871780396
            ],
            "type" : "VEC3"
        },
        {
            "bufferView" : 26,
            "componentType" : 5126,
            "count" : 12184,
            "type" : "VEC3"
        },
        {
            "bufferView" : 27,
            "componentType" : 5126,
            "count" : 12184,
            "type" : "VEC2"
        }
    ],
    "bufferViews" : [
        {
            "buffer" : 0,
            "byteLength" : 146208,
            "byteOffset" : 0
        },
        {
            "buffer" : 0,
            "byteLength" : 146208,
            "byteOffset" : 146208
        },
        {
            "buffer" : 0,
            "byteLength" : 97472,
            "byteOffset" : 292416
        },
        {
            "buffer" : 0,
            "byteLength" : 39180,
            "byteOffset" : 389888
        },
        {
            "buffer" : 0,
            "byteLength" : 146208,
            "byteOffset" : 429068
        },
        {
            "buffer" : 0,
            "byteLength" : 146208,
            "byteOffset" : 575276
        },
        {
            "buffer" : 0,
            "byteLength" : 97472,
            "byteOffset" : 721484
        },
        {
            "buffer" : 0,
            "byteLength" : 146208,
            "byteOffset" : 818956
        },
        {
            "buffer" : 0,
            "byteLength" : 146208,
            "byteOffset" : 965164
        },
        {
            "buffer" : 0,
            "byteLength" : 97472,
            "byteOffset" : 1111372
        },
        {
            "buffer" : 0,
            "byteLength" : 146208,
            "byteOffset" : 1208844
        },
        {
            "buffer" : 0,
            "byteLength" : 146208,
            "byteOffset" : 1355052
        },
        {
            "buffer" : 0,
            "byteLength" : 97472,
            "byteOffset" : 1501260
        },
        {
            "buffer" : 0,
            "byteLength" : 146208,
            "byteOffset" : 1598732
        },
        {
            "buffer" : 0,
            "byteLength" : 146208,
            "byteOffset" : 1744940
        },
        {
            "buffer" : 0,
            "byteLength" : 97472,
            "byteOffset" : 1891148
        },
        {
            "buffer" : 0,
            "byteLength" : 146208,
            "byteOffset" : 1988620
        },
        {
            "buffer" : 0,
            "byteLength" : 146208,
            "byteOffset" : 2134828
        },
        {
            "buffer" : 0,
            "byteLength" : 97472,
            "byteOffset" : 2281036
        },
        {
            "buffer" : 0,
            "byteLength" : 146208,
            "byteOffset" : 2378508
        },
        {
            "buffer" : 0,
            "byteLength" : 146208,
            "byteOffset" : 2524716
        },
        {
            "buffer" : 0,
            "byteLength" : 97472,
            "byteOffset" : 2670924
        },
        {
            "buffer" : 0,
            "byteLength" : 146208,
            "byteOffset" : 2768396
        },
        {
            "buffer" : 0,
            "byteLength" : 146208,
            "byteOffset" : 2914604
        },
        {
            "buffer" : 0,
            "byteLength" : 97472,
            "byteOffset" : 3060812
        },
        {
            "buffer" : 0,
            "byteLength" : 146208,
            "byteOffset" : 3158284
        },
        {
            "buffer" : 0,
            "byteLength" : 146208,
            "byteOffset" : 3304492
        },
        {
            "buffer" : 0,
            "byteLength" : 97472,
            "byteOffset" : 3450700
        }
    ],
    "samplers" : [
        {
            "magFilter" : 9729,
            "minFilter" : 9987
        }
    ],
    "buffers" : [
        {
            "byteLength" : 3548172,
            "uri" : "cubetasTodas.bin"
        }
    ]
}
